<svg viewBox="0 0 227.6 50.3" xmlns="http://www.w3.org/2000/svg"><g fill="#010103"><path d="m130.7 48.8h12.4l-16.8-47.4h-13.9l-16.8 47.4h12.4l2.8-7.8h17.2zm-16.3-18.1 4.9-14 4.9 14z"/><path d="m215.3 1.4v18.6h-15.9v-18.6h-12.4v47.4h12.4v-18.6h15.9v18.6h12.3v-47.4z"/><path d="m79.3 48.8h13.8l-10.6-18.8c4.2-2.8 6.9-7.6 6.9-13 0-8.6-7-15.6-15.6-15.6h-20.5v.5 30.7 16.2h12.4v-16.2h4.5zm-13.6-37.6h5.5c3.2 0 5.9 2.6 5.9 5.9s-2.6 5.9-5.9 5.9h-5.5z"/><path d="m167.2 1.4h-20.4v31.2 16.2h12.4v-16.2h8.1c8.6 0 15.6-7 15.6-15.6-.1-8.6-7-15.6-15.7-15.6m-2.5 21.5h-5.5v-11.7h5.5c3.2 0 5.9 2.6 5.9 5.9 0 3.1-2.7 5.8-5.9 5.8"/><path d="m24.6 20v10.3h10.5v6.7c-2.5 1.7-5.6 2.5-9.2 2.5-2 0-3.9-.4-5.5-1.1s-3.1-1.7-4.3-3-2.2-2.8-2.8-4.6c-.7-1.8-1-3.7-1-5.8v-.1c0-1.9.3-3.8 1-5.5s1.6-3.2 2.8-4.5 2.6-2.3 4.1-3c1.6-.7 3.2-1.1 5-1.1 1.3 0 2.5.1 3.6.3s2.1.5 3 .9 1.8.9 2.7 1.4c.9.6 1.8 1.2 2.6 2l.5.4 7.4-8.7-.5-.4c-1.2-1.1-2.5-2-3.9-2.8-1.3-.8-2.8-1.5-4.3-2.1s-3.2-1-5-1.3c-1.7-.3-3.7-.5-5.8-.5-3.7 0-7.1.7-10.2 2s-5.8 3.1-8.1 5.4-4 5-5.3 8-1.9 6.3-1.9 9.8v.1c0 3.6.6 7 1.9 10 1.2 3 3 5.7 5.3 7.9 2.2 2.2 5 4 8.1 5.2s6.6 1.9 10.4 1.9c4.4 0 8.4-.8 11.8-2.3s6.4-3.3 8.9-5.5l.2-.1v-22.4z"/></g></svg>