
<svg xmlns="http://www.w3.org/2000/svg" viewBox="0 0 1910.02 429.53">
<g fill="#010103">
	<polygon points="235.91,165.25 99.59,165.25 99.59,7.79 0,7.79 0,421.74 99.59,421.74 99.59,251.48 235.91,251.48 235.91,421.74 
		334.39,421.74 334.39,7.79 235.91,7.79 	"/>
	<path d="M666.53,237.57c0,78.45-25.04,106.27-70.1,106.27c-45.62,0-68.99-27.82-68.99-106.27V7.79H428.4V227
		c0,139.65,57.31,202.52,168.03,202.52c110.16,0,165.8-62.87,165.8-202.52V7.79h-95.7V237.57z"/>
	<path d="M1089.37,144.66c0,49.52,7.79,109.05,13.35,153h-2.78l-40.62-91.8L956.39,7.79H855.13v413.95h94.58V284.31
		c0-50.07-8.35-106.83-12.8-153.01h2.78L980.32,222l102.37,199.74h101.26V7.79h-94.58V144.66z"/>
	<path d="M1484.95,186.39l-51.74-20.59c-36.72-14.47-62.87-23.37-62.87-46.18c0-22.25,18.92-34.5,49.52-34.5
		c32.27,0,57.86,11.13,85.13,31.71l49.52-62.31C1518.33,18.36,1467.7,0,1419.85,0c-87.91,0-150.22,55.64-150.22,125.19
		c0,60.09,40.62,96.25,84.01,113.5l52.86,22.26c35.61,15.02,58.42,22.81,58.42,46.74c0,22.26-17.25,36.17-53.97,36.17
		c-32.83,0-71.22-17.25-100.71-42.29l-56.19,68.44c42.84,39.5,100.71,59.53,154.67,59.53c100.15,0,158.01-60.65,158.01-129.64
		C1566.73,241.47,1536.13,206.97,1484.95,186.39z"/>
	<path d="M1828.23,186.39l-51.74-20.59c-36.72-14.47-62.87-23.37-62.87-46.18c0-22.25,18.92-34.5,49.52-34.5
		c32.27,0,57.86,11.13,85.13,31.71l49.52-62.31C1861.61,18.36,1810.98,0,1763.13,0c-87.91,0-150.22,55.64-150.22,125.19
		c0,60.09,40.62,96.25,84.01,113.5l52.86,22.26c35.61,15.02,58.42,22.81,58.42,46.74c0,22.26-17.25,36.17-53.97,36.17
		c-32.83,0-71.22-17.25-100.71-42.29l-56.19,68.44c42.84,39.5,100.71,59.53,154.67,59.53c100.15,0,158.01-60.65,158.01-129.64
		C1910.02,241.47,1879.42,206.97,1828.23,186.39z"/>
</g>
</svg>
